<svg xmlns="http://www.w3.org/2000/svg" version="1.1" xmlns:xlink="http://www.w3.org/1999/xlink" xmlns:svgjs="http://svgjs.dev/svgjs" width="1000" height="1000" viewBox="0 0 1000 1000"><g transform="matrix(1,0,0,1,-0.14221556886212738,-0.14221556886229791)"><svg viewBox="0 0 334 334" data-background-color="#ffffff" preserveAspectRatio="xMidYMid meet" height="1000" width="1000" xmlns="http://www.w3.org/2000/svg" xmlns:xlink="http://www.w3.org/1999/xlink"><defs></defs><g id="tight-bounds" transform="matrix(1,0,0,1,0.04749999999998522,0.04750000000001364)"><svg viewBox="0 0 333.90454557049503 333.90454557049503" height="333.90454557049503" width="333.90454557049503"><g><svg></svg></g><g><svg viewBox="0 0 333.90454557049503 333.90454557049503" height="333.90454557049503" width="333.90454557049503"><g><path d="M0 166.952c0-92.205 74.747-166.952 166.952-166.952 92.205 0 166.952 74.747 166.953 166.952 0 92.205-74.747 166.952-166.953 166.953-92.205 0-166.952-74.747-166.952-166.953zM166.952 329.909c89.998 0 162.956-72.958 162.957-162.957 0-89.998-72.958-162.956-162.957-162.956-89.998 0-162.956 72.958-162.956 162.956 0 89.998 72.958 162.956 162.956 162.957z" data-fill-palette-color="tertiary" fill="#50a060" stroke="transparent"></path><ellipse rx="160.27418187383762" ry="160.27418187383762" cx="166.95227278524752" cy="166.95227278524752" fill="#50a060" stroke="transparent" stroke-width="0" fill-opacity="1" data-fill-palette-color="tertiary"></ellipse></g><g transform="matrix(1,0,0,1,82.32222482525364,71.17305217166896)"><svg viewBox="0 0 169.26009591998775 191.55844122715712" height="191.55844122715712" width="169.26009591998775"><g><svg viewBox="0 0 190.3746100603733 215.45458398908139" height="191.55844122715712" width="169.26009591998775"><g><svg viewBox="0 0 190.3746100603733 215.45458398908139" height="215.45458398908139" width="190.3746100603733"><g><svg viewBox="0 0 190.3746100603733 215.45458398908139" height="215.45458398908139" width="190.3746100603733"><g><svg viewBox="0 0 190.3746100603733 190.3746100603733" height="190.3746100603733" width="190.3746100603733"><g transform="matrix(1,0,0,1,50.548284848976714,50.54844197772437)"><svg viewBox="0 0 89.27804036241987 89.27772610492455" height="89.27772610492455" width="89.27804036241987"><g><svg xmlns="http://www.w3.org/2000/svg" xmlns:xlink="http://www.w3.org/1999/xlink" version="1.1" x="0" y="0" viewBox="7.734947204589844 7.735245704650879 84.53054809570312 84.5302505493164" enable-background="new 0 0 100 100" xml:space="preserve" height="89.27772610492455" width="89.27804036241987" class="icon-o-0" data-fill-palette-color="quaternary" id="o-0"><g fill="#ffffff" data-fill-palette-color="quaternary"><g fill="#ffffff" data-fill-palette-color="quaternary"><g fill="#ffffff" data-fill-palette-color="quaternary"><path d="M28.368 14.767C42.162 16.327 48.04 25.762 49.69 30.695c1.07 3.198 1.472 5.094 1.472 9.275 0 0.817 0.044 2.076-1.054 2.216-0.77 0.099-1.209-0.509-1.273-1.182-0.289-3.026-1.159-6.569-4.008-9.85-2.253-2.594-7.472-7.802-16.652-7.021-2.669 0.228-5.052-1.868-5.129-4.564C22.964 16.703 25.531 14.446 28.368 14.767z" fill="#ffffff" data-fill-palette-color="quaternary"></path><path d="M71.633 85.232c-13.794-1.561-19.671-10.995-21.322-15.929-1.07-3.198-1.472-5.094-1.472-9.275 0-0.817-0.044-2.076 1.054-2.216 0.77-0.099 1.209 0.509 1.273 1.182 0.289 3.026 1.159 6.569 4.008 9.85 2.253 2.594 7.472 7.802 16.652 7.021 2.669-0.228 5.052 1.868 5.129 4.564C77.037 83.296 74.47 85.553 71.633 85.232z" fill="#ffffff" data-fill-palette-color="quaternary"></path></g><g fill="#ffffff" data-fill-palette-color="quaternary"><path d="M14.768 71.633c1.56-13.794 10.995-19.672 15.928-21.322 3.198-1.07 5.094-1.472 9.276-1.472 0.817 0 2.076-0.045 2.216 1.054 0.098 0.77-0.509 1.209-1.182 1.273-3.026 0.288-6.569 1.159-9.849 4.008-2.594 2.254-7.802 7.473-7.021 16.652 0.228 2.669-1.868 5.052-4.564 5.129C16.704 77.036 14.447 74.47 14.768 71.633z" fill="#ffffff" data-fill-palette-color="quaternary"></path><path d="M85.233 28.367c-1.56 13.794-10.995 19.672-15.928 21.322-3.198 1.07-5.094 1.472-9.276 1.472-0.817 0-2.076 0.045-2.216-1.054-0.098-0.77 0.509-1.209 1.182-1.273 3.026-0.288 6.569-1.159 9.849-4.008 2.594-2.254 7.802-7.473 7.021-16.652-0.228-2.669 1.868-5.052 4.564-5.129C83.297 22.964 85.554 25.53 85.233 28.367z" fill="#ffffff" data-fill-palette-color="quaternary"></path></g></g><g fill="#ffffff" data-fill-palette-color="quaternary"><g fill="#ffffff" data-fill-palette-color="quaternary"><path d="M13.65 30.304c12.726-5.546 22.533-0.314 26.43 3.133 2.526 2.234 3.821 3.676 5.912 7.297 0.409 0.708 1.077 1.775 0.195 2.446-0.617 0.47-1.302 0.164-1.693-0.387-1.763-2.477-4.289-5.109-8.396-6.525-3.249-1.12-10.373-3.021-17.931 2.246-2.198 1.531-5.309 0.907-6.724-1.389C9.938 34.682 11.033 31.444 13.65 30.304z" fill="#ffffff" data-fill-palette-color="quaternary"></path><path d="M86.351 69.695c-12.726 5.546-22.533 0.314-26.43-3.133-2.526-2.234-3.821-3.676-5.912-7.297-0.409-0.708-1.077-1.775-0.196-2.446 0.618-0.47 1.302-0.164 1.694 0.387 1.763 2.477 4.289 5.109 8.396 6.525 3.249 1.12 10.373 3.021 17.931-2.245 2.198-1.532 5.309-0.908 6.724 1.388C90.063 65.317 88.968 68.555 86.351 69.695z" fill="#ffffff" data-fill-palette-color="quaternary"></path></g><g fill="#ffffff" data-fill-palette-color="quaternary"><path d="M30.304 86.351c-5.546-12.726-0.314-22.533 3.133-26.43 2.235-2.525 3.676-3.821 7.298-5.912 0.708-0.409 1.775-1.076 2.445-0.195 0.47 0.617 0.164 1.302-0.387 1.693-2.477 1.764-5.109 4.289-6.525 8.396-1.12 3.248-3.021 10.372 2.246 17.931 1.531 2.198 0.908 5.31-1.389 6.725C34.683 90.062 31.445 88.968 30.304 86.351z" fill="#ffffff" data-fill-palette-color="quaternary"></path><path d="M69.696 13.649c5.546 12.726 0.314 22.533-3.133 26.43-2.234 2.526-3.675 3.821-7.297 5.913-0.708 0.408-1.775 1.076-2.446 0.195-0.47-0.618-0.163-1.303 0.388-1.694 2.477-1.763 5.109-4.288 6.525-8.396 1.12-3.249 3.021-10.372-2.246-17.932-1.532-2.198-0.908-5.309 1.388-6.724C65.318 9.938 68.556 11.032 69.696 13.649z" fill="#ffffff" data-fill-palette-color="quaternary"></path></g></g><g fill="#ffffff" data-fill-palette-color="quaternary"><g fill="#ffffff" data-fill-palette-color="quaternary"><path d="M8.671 51.118c8.248-11.166 19.357-11.539 24.456-10.502 3.305 0.672 5.147 1.272 8.769 3.363 0.708 0.408 1.82 0.999 1.392 2.021-0.299 0.716-1.045 0.793-1.66 0.512-2.765-1.263-6.269-2.28-10.533-1.453-3.374 0.654-10.494 2.57-14.406 10.911-1.138 2.425-4.144 3.44-6.518 2.159C7.646 56.766 6.976 53.414 8.671 51.118z" fill="#ffffff" data-fill-palette-color="quaternary"></path><path d="M91.329 48.882C83.081 60.047 71.971 60.42 66.874 59.383c-3.305-0.672-5.147-1.272-8.769-3.363-0.708-0.408-1.82-0.999-1.393-2.021 0.3-0.716 1.046-0.793 1.66-0.512 2.766 1.264 6.269 2.28 10.534 1.453 3.373-0.654 10.493-2.569 14.406-10.91 1.138-2.426 4.144-3.441 6.517-2.16C92.354 43.233 93.025 46.585 91.329 48.882z" fill="#ffffff" data-fill-palette-color="quaternary"></path></g><g fill="#ffffff" data-fill-palette-color="quaternary"><path d="M51.119 91.329C39.953 83.081 39.58 71.972 40.617 66.874c0.673-3.305 1.272-5.147 3.364-8.77 0.409-0.708 1-1.819 2.02-1.392 0.716 0.3 0.793 1.045 0.512 1.66-1.263 2.765-2.28 6.269-1.453 10.533 0.654 3.374 2.57 10.493 10.911 14.406 2.425 1.138 3.44 4.144 2.159 6.518C56.766 92.354 53.415 93.025 51.119 91.329z" fill="#ffffff" data-fill-palette-color="quaternary"></path><path d="M48.882 8.672c11.166 8.247 11.538 19.356 10.501 24.455-0.672 3.305-1.271 5.147-3.362 8.77-0.409 0.707-1 1.819-2.021 1.392-0.716-0.3-0.792-1.046-0.511-1.661 1.263-2.765 2.28-6.268 1.453-10.533-0.655-3.373-2.57-10.492-10.911-14.406-2.426-1.137-3.44-4.144-2.159-6.517C43.234 7.646 46.585 6.976 48.882 8.672z" fill="#ffffff" data-fill-palette-color="quaternary"></path></g></g></g></svg></g></svg></g><path d="M6.147 62.18l-2.057 6.559 4.956 1.554 1.781-5.679 1.251 0.393-1.781 5.679 5.865 1.84-0.424 1.348-13.313-4.176 2.481-7.908zM18.693 62.051l2.505-5.501 1.194 0.544-3.092 6.787-12.697-5.784 0.586-1.287zM26.929 50.896c-0.767 1.18-1.684 2.009-2.752 2.488-1.068 0.479-2.195 0.626-3.379 0.443-1.19-0.187-2.366-0.658-3.529-1.413v0c-1.145-0.744-2.042-1.62-2.691-2.628-0.648-1.008-0.974-2.099-0.976-3.273-0.002-1.174 0.38-2.352 1.146-3.532v0c0.759-1.168 1.674-1.987 2.745-2.456 1.074-0.475 2.208-0.622 3.401-0.441 1.194 0.181 2.357 0.64 3.492 1.377v0c1.163 0.755 2.069 1.642 2.719 2.659 0.645 1.013 0.965 2.106 0.962 3.276 0 1.165-0.379 2.332-1.138 3.5zM25.864 50.204c0.577-0.888 0.848-1.794 0.815-2.72-0.024-0.928-0.315-1.809-0.872-2.644-0.554-0.84-1.309-1.571-2.265-2.192v0c-0.922-0.599-1.871-0.975-2.847-1.129-0.966-0.155-1.878-0.056-2.735 0.299-0.861 0.361-1.577 0.979-2.147 1.855v0c-0.588 0.905-0.87 1.821-0.845 2.75 0.024 0.928 0.311 1.803 0.86 2.624 0.55 0.821 1.294 1.537 2.234 2.147v0c0.956 0.621 1.921 1.016 2.895 1.185 0.974 0.169 1.887 0.073 2.738-0.285 0.858-0.355 1.581-0.985 2.169-1.89zM37.344 37.449l-7.056-1.299-1.999 2.225 4.549 4.088-0.945 1.051-10.378-9.325 3.149-3.505c1.945-2.164 3.892-2.37 5.843-0.617v0c0.803 0.721 1.272 1.492 1.408 2.311 0.126 0.82-0.099 1.679-0.675 2.575v0l7.185 1.292zM23.404 33.986l3.94 3.54 2.205-2.453c1.296-1.443 1.279-2.762-0.052-3.959v0c-0.676-0.607-1.33-0.87-1.965-0.787-0.634 0.082-1.275 0.484-1.923 1.206v0zM40.435 34.616l-9.407-10.305 1.044-0.953 9.407 10.304zM47.6 29.502c-1.411 1.032-2.867 1.685-4.366 1.961v0l-0.798-1.092c1.526-0.227 2.997-0.859 4.414-1.895v0c0.877-0.641 1.383-1.303 1.518-1.985 0.139-0.677-0.016-1.329-0.465-1.956v0c-0.427-0.584-0.945-0.887-1.553-0.909-0.608-0.021-1.331 0.123-2.171 0.433v0l-1.214 0.456c-0.687 0.24-1.309 0.403-1.865 0.487-0.56 0.079-1.118 0.01-1.675-0.209-0.567-0.22-1.086-0.653-1.558-1.297v0c-0.762-1.042-1.038-2.05-0.828-3.025 0.2-0.976 0.847-1.862 1.938-2.66v0c0.645-0.472 1.258-0.831 1.839-1.078 0.585-0.241 1.224-0.426 1.919-0.552v0l0.78 1.067c-1.373 0.217-2.635 0.746-3.788 1.588v0c-0.772 0.564-1.204 1.172-1.295 1.822-0.097 0.655 0.095 1.31 0.575 1.966v0c0.442 0.582 0.947 0.89 1.513 0.925 0.566 0.034 1.265-0.104 2.095-0.415v0l1.231-0.469c0.708-0.281 1.357-0.459 1.945-0.533 0.579-0.076 1.149-0.002 1.71 0.222 0.557 0.219 1.076 0.656 1.556 1.312v0c0.69 0.967 0.908 1.971 0.653 3.012-0.249 1.036-0.952 1.978-2.11 2.824zM54.49 8.913l0.617 1.146-3.797 2.045 5.999 11.139-1.236 0.665-5.999-11.139-3.788 2.04-0.617-1.145zM64.023 18.743l6.488-2.535 0.463 1.183-7.806 3.05-5.077-12.997 7.719-3.016 0.463 1.184-6.403 2.501 1.827 4.676 5.544-2.166 0.462 1.183-5.544 2.166zM81.352 15.041l-5.058-5.087-2.911 0.689 1.41 5.951-1.376 0.326-3.216-13.577 4.586-1.086c2.831-0.671 4.549 0.27 5.153 2.822v0c0.249 1.05 0.195 1.951-0.16 2.701-0.364 0.746-1.038 1.323-2.022 1.732v0l5.169 5.156zM71.869 4.253l1.221 5.154 3.21-0.76c1.887-0.447 2.625-1.541 2.213-3.283v0c-0.209-0.884-0.598-1.473-1.166-1.766-0.568-0.294-1.324-0.329-2.268-0.105v0zM85.507 14.474l-1.86-13.829 1.401-0.188 1.86 13.828zM99.498 14.08l-1.69-4.348-5.9 0.054-1.589 4.379-1.475 0.014 5.207-14.166 1.434-0.013 5.488 14.067zM92.398 8.47l4.896-0.045-2.508-6.472zM120.098 3.204l1.469 0.281-2.62 13.705-1.399-0.267 2.207-11.542-5.627 5.318-0.734-0.14-3.279-7.021-2.206 11.542-1.389-0.266 2.62-13.705 1.479 0.283 3.485 7.467zM130.319 21.806l0.077-4.665-5.485-2.176-3.124 3.456-1.371-0.544 10.167-11.154 1.333 0.529-0.226 15.098zM125.861 13.931l4.552 1.806 0.119-6.94zM140.559 17.691l6.096 3.516-3.773 6.54c-0.847-0.008-1.698-0.132-2.552-0.372-0.858-0.235-1.609-0.538-2.255-0.91v0c-1.254-0.723-2.167-1.601-2.739-2.633-0.566-1.028-0.795-2.142-0.686-3.341 0.108-1.199 0.524-2.426 1.247-3.68v0c0.689-1.195 1.517-2.145 2.484-2.849 0.966-0.704 2.046-1.079 3.238-1.124 1.187-0.049 2.425 0.299 3.715 1.044v0c0.698 0.403 1.252 0.809 1.662 1.219 0.407 0.416 0.837 0.928 1.29 1.536v0l-0.701 1.216c-0.368-0.606-0.77-1.138-1.209-1.596-0.438-0.458-0.997-0.883-1.677-1.275v0c-0.947-0.546-1.887-0.801-2.823-0.765-0.939 0.042-1.812 0.346-2.62 0.913-0.808 0.567-1.5 1.35-2.077 2.35v0c-0.601 1.041-0.95 2.058-1.049 3.049-0.099 0.992 0.067 1.907 0.497 2.747 0.43 0.84 1.125 1.536 2.083 2.088v0c0.497 0.287 1.021 0.506 1.572 0.659 0.551 0.152 1.146 0.263 1.784 0.331v0l2.718-4.712-4.881-2.816zM160.281 25.13l1.101 0.888-8.759 10.861-1.14-0.919 1.496-13.573-7.222 8.956-1.1-0.888 8.758-10.861 1.164 0.939-1.519 13.553zM158.133 43.825c-0.919-1.065-1.459-2.178-1.621-3.337-0.161-1.16 0.011-2.282 0.517-3.369 0.511-1.091 1.292-2.089 2.342-2.994v0c1.034-0.892 2.126-1.509 3.274-1.851 1.149-0.341 2.287-0.35 3.416-0.024 1.129 0.325 2.152 1.021 3.071 2.086v0c0.91 1.055 1.441 2.162 1.593 3.321 0.156 1.164-0.019 2.294-0.526 3.389-0.507 1.096-1.272 2.085-2.296 2.969v0c-1.05 0.906-2.154 1.529-3.312 1.87-1.153 0.336-2.291 0.34-3.415 0.009-1.119-0.325-2.133-1.014-3.044-2.069zM159.094 42.995c0.691 0.802 1.486 1.315 2.385 1.542 0.898 0.236 1.825 0.202 2.782-0.1 0.961-0.297 1.874-0.818 2.738-1.564v0c0.833-0.718 1.459-1.524 1.878-2.418 0.419-0.884 0.577-1.788 0.476-2.71-0.106-0.928-0.5-1.787-1.183-2.579v0c-0.705-0.817-1.506-1.343-2.404-1.579-0.898-0.236-1.818-0.204-2.76 0.094-0.942 0.299-1.837 0.814-2.685 1.545v0c-0.864 0.745-1.512 1.562-1.946 2.45-0.433 0.888-0.597 1.791-0.49 2.71 0.101 0.923 0.505 1.793 1.209 2.609zM165.762 51.177l3.258 5.091-1.105 0.707-4.02-6.282 11.753-7.52 0.762 1.19zM168.932 59.156l12.332-6.527 0.662 1.25-12.333 6.526zM172.565 69.01c-0.492-1.318-0.612-2.549-0.36-3.692 0.252-1.143 0.803-2.136 1.656-2.979 0.858-0.845 1.937-1.51 3.236-1.994v0c1.28-0.477 2.518-0.676 3.713-0.598 1.196 0.079 2.266 0.467 3.212 1.165 0.945 0.697 1.663 1.705 2.155 3.023v0c0.487 1.305 0.6 2.528 0.339 3.667-0.258 1.146-0.815 2.144-1.671 2.996-0.856 0.851-1.918 1.513-3.185 1.985v0c-1.299 0.484-2.551 0.685-3.755 0.602-1.198-0.085-2.266-0.478-3.205-1.177-0.936-0.693-1.648-1.693-2.135-2.998zM173.756 68.566c0.37 0.992 0.937 1.75 1.7 2.274 0.76 0.533 1.641 0.824 2.644 0.873 1.005 0.055 2.041-0.116 3.11-0.514v0c1.03-0.384 1.897-0.922 2.601-1.615 0.7-0.684 1.163-1.476 1.388-2.376 0.223-0.907 0.152-1.85-0.213-2.829v0c-0.377-1.011-0.945-1.783-1.705-2.316-0.76-0.533-1.634-0.823-2.621-0.871-0.987-0.047-2.005 0.125-3.055 0.516v0c-1.069 0.398-1.961 0.939-2.675 1.621-0.715 0.682-1.182 1.472-1.402 2.37-0.226 0.9-0.15 1.856 0.228 2.867zM20.647 127.606l-2.058-6.559-4.956 1.555 1.782 5.679-1.251 0.392-1.782-5.679-5.865 1.84-0.423-1.349 13.313-4.176 2.481 7.908zM11.881 135.386l2.506 5.501-1.194 0.543-3.091-6.787 12.698-5.783 0.586 1.286zM17.921 149.291c-0.767-1.18-1.151-2.355-1.155-3.526-0.003-1.171 0.319-2.26 0.968-3.267 0.654-1.011 1.562-1.895 2.725-2.651v0c1.145-0.744 2.31-1.208 3.494-1.391 1.184-0.183 2.313-0.037 3.388 0.438 1.074 0.475 1.995 1.302 2.761 2.482v0c0.759 1.168 1.136 2.337 1.129 3.506-0.002 1.174-0.329 2.27-0.979 3.287-0.65 1.017-1.542 1.894-2.676 2.631v0c-1.163 0.755-2.341 1.224-3.535 1.405-1.188 0.177-2.316 0.027-3.384-0.452-1.065-0.473-1.977-1.293-2.736-2.462zM18.986 148.599c0.577 0.888 1.295 1.504 2.155 1.85 0.858 0.355 1.781 0.447 2.77 0.277 0.993-0.164 1.967-0.557 2.924-1.179v0c0.922-0.599 1.651-1.313 2.187-2.143 0.534-0.82 0.814-1.693 0.838-2.621 0.02-0.934-0.254-1.839-0.823-2.715v0c-0.588-0.905-1.311-1.535-2.169-1.889-0.858-0.355-1.774-0.448-2.747-0.28-0.974 0.169-1.93 0.558-2.87 1.168v0c-0.956 0.621-1.709 1.343-2.258 2.165-0.55 0.821-0.834 1.694-0.852 2.618-0.024 0.928 0.258 1.844 0.845 2.749zM29.825 163.641l2.043-6.877-1.999-2.225-4.549 4.088-0.945-1.052 10.379-9.325 3.149 3.505c1.945 2.164 1.941 4.123-0.009 5.875v0c-0.803 0.721-1.619 1.106-2.448 1.154-0.829 0.038-1.659-0.277-2.489-0.946v0l-2.05 7.007zM34.754 150.15l-3.94 3.54 2.205 2.454c1.296 1.443 2.61 1.566 3.941 0.37v0c0.676-0.607 1.006-1.23 0.992-1.869-0.014-0.639-0.345-1.319-0.994-2.041v0zM33.62 167.184l9.408-10.305 1.044 0.953-9.407 10.305zM41.26 173.505c-1.411-1.032-2.476-2.22-3.193-3.565v0l0.798-1.092c0.68 1.385 1.728 2.595 3.145 3.631v0c0.877 0.641 1.661 0.922 2.352 0.844 0.688-0.073 1.262-0.418 1.723-1.037v0c0.427-0.584 0.559-1.169 0.394-1.755-0.164-0.585-0.521-1.231-1.07-1.937v0l-0.804-1.019c-0.437-0.582-0.781-1.125-1.03-1.629-0.245-0.509-0.348-1.063-0.309-1.66 0.038-0.607 0.292-1.233 0.764-1.878v0c0.762-1.042 1.639-1.611 2.63-1.706 0.99-0.105 2.032 0.241 3.123 1.039v0c0.645 0.472 1.173 0.947 1.585 1.425 0.408 0.484 0.777 1.038 1.109 1.661v0l-0.78 1.067c-0.623-1.242-1.511-2.285-2.663-3.127v0c-0.772-0.564-1.482-0.791-2.13-0.681-0.653 0.106-1.219 0.488-1.699 1.144v0c-0.42 0.598-0.561 1.172-0.421 1.722 0.139 0.55 0.483 1.174 1.031 1.87v0l0.82 1.031c0.483 0.59 0.849 1.153 1.099 1.692 0.248 0.528 0.351 1.094 0.307 1.697-0.039 0.597-0.298 1.224-0.778 1.88v0c-0.712 0.951-1.603 1.464-2.671 1.537-1.063 0.077-2.174-0.307-3.332-1.154zM62.929 169.751l-0.617 1.145-3.797-2.045-5.999 11.14-1.236-0.666 5.999-11.139-3.788-2.04 0.617-1.146zM61.269 182.639l6.489 2.535-0.462 1.184-7.806-3.05 5.078-12.996 7.719 3.016-0.462 1.183-6.403-2.501-1.827 4.675 5.544 2.166-0.462 1.183-5.544-2.166zM79.022 189.129l-2.239-6.816-2.911-0.689-1.409 5.951-1.376-0.326 3.216-13.577 4.586 1.086c2.831 0.671 3.944 2.282 3.34 4.834v0c-0.249 1.05-0.7 1.831-1.355 2.343-0.66 0.503-1.521 0.717-2.584 0.641v0l2.307 6.926zM75.386 175.234l-1.221 5.154 3.21 0.76c1.887 0.447 3.037-0.2 3.45-1.941v0c0.209-0.884 0.126-1.584-0.25-2.102-0.376-0.517-1.036-0.887-1.979-1.111v0zM84.159 189.878l1.861-13.828 1.401 0.188-1.861 13.829zM99.405 190.361l-1.609-4.379-5.901-0.055-1.669 4.349-1.475-0.013 5.467-14.067 1.435 0.013 5.227 14.166zM92.409 184.621l4.897 0.045-2.388-6.517zM116.756 173.648l1.469-0.281 2.62 13.705-1.399 0.268-2.206-11.542-3.268 7.019-0.735 0.14-5.637-5.316 2.207 11.541-1.389 0.266-2.62-13.705 1.479-0.283 5.994 5.655zM134.047 181.924l-3.143-3.449-5.485 2.177 0.096 4.657-1.371 0.544-0.245-15.09 1.333-0.529 10.186 11.146zM125.402 179.248l4.552-1.806-4.671-5.135zM137.091 170.633l6.096-3.517 3.773 6.54c-0.431 0.729-0.964 1.404-1.6 2.023-0.633 0.625-1.272 1.124-1.917 1.496v0c-1.254 0.723-2.471 1.075-3.65 1.053-1.173-0.025-2.252-0.384-3.236-1.078-0.984-0.694-1.837-1.668-2.561-2.922v0c-0.689-1.195-1.097-2.387-1.223-3.576-0.126-1.189 0.09-2.311 0.649-3.366 0.552-1.052 1.473-1.95 2.763-2.694v0c0.698-0.403 1.327-0.679 1.887-0.829 0.564-0.144 1.222-0.26 1.976-0.347v0l0.701 1.216c-0.709 0.015-1.371 0.097-1.986 0.247-0.615 0.15-1.263 0.421-1.944 0.813v0c-0.947 0.546-1.638 1.233-2.075 2.061-0.434 0.834-0.607 1.742-0.521 2.725 0.086 0.983 0.418 1.975 0.994 2.974v0c0.601 1.041 1.305 1.853 2.114 2.435 0.809 0.582 1.684 0.897 2.627 0.945 0.942 0.048 1.892-0.205 2.851-0.757v0c0.497-0.287 0.949-0.63 1.356-1.031 0.408-0.401 0.801-0.86 1.18-1.379v0l-2.718-4.712-4.881 2.816zM149.109 155.349l1.101-0.888 8.758 10.862-1.14 0.92-12.948-4.339 7.222 8.956-1.101 0.887-8.758-10.862 1.164-0.938 12.924 4.357zM166.267 157.526c-0.919 1.065-1.94 1.763-3.064 2.093-1.123 0.33-2.259 0.324-3.408-0.018-1.154-0.346-2.256-0.972-3.305-1.877v0c-1.034-0.892-1.804-1.881-2.311-2.967-0.506-1.086-0.681-2.211-0.524-3.376 0.156-1.164 0.694-2.279 1.612-3.344v0c0.91-1.055 1.927-1.742 3.052-2.062 1.129-0.325 2.272-0.318 3.43 0.023 1.158 0.341 2.249 0.953 3.273 1.836v0c1.05 0.906 1.828 1.906 2.335 3.002 0.502 1.091 0.672 2.217 0.51 3.376-0.157 1.154-0.691 2.259-1.6 3.314zM165.305 156.697c0.691-0.802 1.083-1.663 1.175-2.586 0.101-0.923-0.068-1.835-0.507-2.737-0.435-0.907-1.084-1.734-1.948-2.479v0c-0.833-0.718-1.722-1.219-2.667-1.503-0.936-0.284-1.853-0.309-2.751-0.073-0.902 0.241-1.695 0.757-2.378 1.548v0c-0.705 0.817-1.108 1.687-1.209 2.61-0.101 0.923 0.065 1.828 0.498 2.716 0.433 0.888 1.074 1.698 1.922 2.43v0c0.864 0.745 1.766 1.267 2.709 1.565 0.942 0.299 1.859 0.328 2.752 0.088 0.898-0.236 1.699-0.762 2.404-1.579zM172.066 147.191l3.258-5.091 1.105 0.707-4.02 6.282-11.753-7.521 0.762-1.191zM177.866 139.906l-12.333-6.526 0.662-1.25 12.332 6.527zM182.631 129.077c-0.492 1.318-1.207 2.327-2.145 3.027-0.939 0.7-2.006 1.089-3.202 1.168-1.202 0.077-2.453-0.127-3.752-0.612v0c-1.28-0.477-2.346-1.137-3.197-1.979-0.852-0.843-1.407-1.837-1.665-2.983-0.258-1.146-0.141-2.378 0.35-3.696v0c0.487-1.305 1.202-2.304 2.144-2.994 0.945-0.697 2.02-1.087 3.225-1.171 1.204-0.083 2.44 0.112 3.707 0.585v0c1.299 0.484 2.377 1.152 3.233 2.003 0.85 0.849 1.4 1.845 1.651 2.989 0.254 1.137 0.138 2.358-0.349 3.663zM181.441 128.633c0.37-0.992 0.438-1.936 0.203-2.832-0.226-0.9-0.701-1.697-1.426-2.391-0.723-0.7-1.619-1.249-2.688-1.647v0c-1.03-0.384-2.038-0.545-3.024-0.482-0.977 0.059-1.845 0.354-2.605 0.887-0.762 0.539-1.326 1.299-1.691 2.278v0c-0.377 1.011-0.453 1.967-0.227 2.867 0.226 0.9 0.696 1.692 1.411 2.374 0.715 0.682 1.597 1.219 2.647 1.61v0c1.069 0.398 2.097 0.574 3.083 0.527 0.987-0.047 1.857-0.339 2.611-0.874 0.76-0.533 1.328-1.305 1.706-2.317zM1.993 97.167c0-2.999 2.431-5.43 5.43-5.43 2.999 0 5.43 2.431 5.429 5.43 0 2.999-2.431 5.43-5.429 5.43-2.999 0-5.43-2.431-5.43-5.43zM177.522 97.167c0-2.999 2.431-5.43 5.43-5.43 2.999 0 5.43 2.431 5.43 5.43 0 2.999-2.431 5.43-5.43 5.43-2.999 0-5.43-2.431-5.43-5.43z" fill="#ffffff" data-fill-palette-color="quaternary"></path></svg></g><g transform="matrix(1,0,0,1,0,202.13976096210436)"><svg viewBox="0 0 190.3746100603733 13.314823026977006" height="13.314823026977006" width="190.3746100603733"><g transform="matrix(1,0,0,1,0,0)"><svg width="190.3746100603733" viewBox="2.25 -33.29999923706055 626.1799926757812 43.79999923706055" height="13.314823026977006" data-palette-color="#ffffff"><path d="M2.25 0L2.25-0.5 2.5-0.5Q2.9-0.5 3.2-0.78 3.5-1.05 3.73-1.45 3.95-1.85 4.08-2.3 4.2-2.75 4.2-3.15L4.2-3.15 4.2-29.9Q4.2-30.25 4.08-30.7 3.95-31.15 3.73-31.55 3.5-31.95 3.2-32.23 2.9-32.5 2.5-32.5L2.5-32.5 2.25-32.5 2.25-33 9.45-33 9.45-32.5 9.2-32.5Q8.8-32.5 8.5-32.23 8.2-31.95 8-31.55 7.8-31.15 7.68-30.7 7.55-30.25 7.55-29.9L7.55-29.9 7.55-1.85 18.5-1.85Q19.45-1.85 20.15-2.3 20.85-2.75 21.33-3.43 21.8-4.1 22.03-4.88 22.25-5.65 22.25-6.3L22.25-6.3 22.75-6.3 22.75 0 2.25 0ZM43.55 0L38.7 0 38.7-2.55 38.45-2.3Q37.2-1.05 35.57-0.35 33.95 0.35 31.65 0.35L31.65 0.35Q29.9 0.35 28.65-0.05 27.4-0.45 26.6-1.18 25.8-1.9 25.42-2.85 25.05-3.8 25.05-4.85L25.05-4.85Q25.05-6.55 25.97-7.85 26.9-9.15 28.65-10.15 30.4-11.15 32.92-11.98 35.45-12.8 38.7-13.6L38.7-13.6Q38.6-15.55 37.9-16.75 37.2-17.95 36.25-18.63 35.3-19.3 34.25-19.53 33.2-19.75 32.45-19.75L32.45-19.75Q31.15-19.75 30.17-19.35 29.2-18.95 28.47-18.32 27.75-17.7 27.25-16.98 26.75-16.25 26.45-15.6L26.45-15.6 26-15.6 26-19.25Q26.4-19.3 26.75-19.5 27.1-19.7 27.6-19.9L27.6-19.9Q28.35-20.2 29.65-20.78 30.95-21.35 33.3-21.35L33.3-21.35Q36.05-21.35 37.75-20.65 39.45-19.95 40.37-18.8 41.3-17.65 41.6-16.18 41.9-14.7 41.9-13.15L41.9-13.15 41.9-3.25Q41.9-2.25 42.35-1.38 42.8-0.5 43.55-0.5L43.55-0.5 43.55 0ZM38.15-4.15L38.7-4.75 38.7-11.9 38.2-11.8Q37-11.5 35.27-11 33.55-10.5 32-9.7 30.45-8.9 29.35-7.8 28.25-6.7 28.25-5.25L28.25-5.25Q28.25-3.65 29.55-2.6 30.85-1.55 32.95-1.55L32.95-1.55Q34.6-1.55 35.85-2.27 37.1-3 38.15-4.15L38.15-4.15ZM64.59-5.7L64.59-5.7Q64.59-4.4 63.95-3.3 63.3-2.2 62.17-1.38 61.05-0.55 59.55-0.08 58.05 0.4 56.3 0.4L56.3 0.4Q54.14 0.4 52.8-0.18 51.45-0.75 50.49-1.35L50.49-1.35Q49.84-1.75 49.3-2.02 48.74-2.3 48.09-2.3L48.09-2.3 48.09-6.1 48.59-6.1Q48.74-5.4 49.47-4.58 50.2-3.75 51.22-3.05 52.24-2.35 53.47-1.88 54.7-1.4 55.95-1.4L55.95-1.4Q56.84-1.4 57.8-1.6 58.74-1.8 59.52-2.25 60.3-2.7 60.82-3.38 61.34-4.05 61.34-5L61.34-5Q61.34-5.95 60.8-6.65 60.24-7.35 59.39-7.88 58.55-8.4 57.45-8.8 56.34-9.2 55.24-9.55L55.24-9.55Q53.95-9.95 52.62-10.45 51.3-10.95 50.24-11.63 49.2-12.3 48.55-13.28 47.89-14.25 47.89-15.6L47.89-15.6Q47.89-16.75 48.32-17.8 48.74-18.85 49.72-19.63 50.7-20.4 52.24-20.88 53.8-21.35 55.99-21.35L55.99-21.35Q57.95-21.35 59.02-21.03 60.09-20.7 60.8-20.35L60.8-20.35Q61.24-20.1 61.7-19.98 62.14-19.85 62.7-19.85L62.7-19.85 62.7-16.35 62.3-16.35Q61.39-18 59.55-18.85 57.7-19.7 55.74-19.7L55.74-19.7Q54.49-19.7 53.59-19.38 52.7-19.05 52.12-18.57 51.55-18.1 51.27-17.5 50.99-16.9 50.99-16.3L50.99-16.3Q50.99-15.45 51.47-14.85 51.95-14.25 52.77-13.8 53.59-13.35 54.62-12.95 55.64-12.55 56.8-12.2L56.8-12.2Q58.2-11.75 59.59-11.23 60.99-10.7 62.09-9.95 63.2-9.2 63.89-8.18 64.59-7.15 64.59-5.7ZM113.89-12.6L113.89-3.25Q113.89-2.85 113.99-2.38 114.09-1.9 114.29-1.5 114.49-1.1 114.77-0.8 115.04-0.5 115.44-0.5L115.44-0.5 115.44 0 108.94 0 108.94-0.5Q109.34-0.5 109.64-0.8 109.94-1.1 110.17-1.5 110.39-1.9 110.49-2.38 110.59-2.85 110.59-3.25L110.59-3.25 110.59-14.05Q110.59-15.2 110.27-16.25 109.94-17.3 109.29-18.07 108.64-18.85 107.69-19.33 106.74-19.8 105.54-19.8L105.54-19.8Q104.19-19.8 103.22-19.18 102.24-18.55 101.62-17.65 100.99-16.75 100.69-15.83 100.39-14.9 100.39-14.3L100.39-14.3 100.39-3.25Q100.39-2.85 100.49-2.38 100.59-1.9 100.81-1.5 101.04-1.1 101.31-0.8 101.59-0.5 101.99-0.5L101.99-0.5 101.99 0 95.54 0 95.54-0.5Q95.89-0.5 96.19-0.8 96.49-1.1 96.72-1.5 96.94-1.9 97.04-2.38 97.14-2.85 97.14-3.25L97.14-3.25 97.14-14.35Q97.14-15.55 96.72-16.57 96.29-17.6 95.56-18.3 94.84-19 93.92-19.4 92.99-19.8 92.04-19.8L92.04-19.8Q90.74-19.8 89.77-19.3 88.79-18.8 88.17-18.05 87.54-17.3 87.22-16.43 86.89-15.55 86.89-14.75L86.89-14.75 86.89-3.25Q86.89-2.85 86.99-2.38 87.09-1.9 87.31-1.5 87.54-1.1 87.81-0.8 88.09-0.5 88.49-0.5L88.49-0.5 88.49 0 82.04 0 82.04-0.5Q82.39-0.5 82.69-0.8 82.99-1.1 83.22-1.5 83.44-1.9 83.54-2.38 83.64-2.85 83.64-3.25L83.64-3.25 83.64-16.6Q83.64-17 83.59-17.5 83.54-18 83.39-18.45 83.24-18.9 82.89-19.2 82.54-19.5 81.94-19.5L81.94-19.5 81.94-19.95 86.89-21.6 86.89-19.05Q87.64-19.9 88.97-20.7 90.29-21.5 92.44-21.5L92.44-21.5Q93.84-21.5 94.94-21.1 96.04-20.7 96.87-20.08 97.69-19.45 98.29-18.65 98.89-17.85 99.29-17.1L99.29-17.1Q99.69-17.85 100.24-18.63 100.79-19.4 101.56-20.05 102.34-20.7 103.42-21.1 104.49-21.5 105.94-21.5L105.94-21.5Q108.74-21.5 110.34-20.5 111.94-19.5 112.72-18.1 113.49-16.7 113.69-15.18 113.89-13.65 113.89-12.6L113.89-12.6ZM140.64-10.1L123.29-10.1Q123.49-8.35 124.14-6.78 124.79-5.2 125.86-4 126.94-2.8 128.49-2.08 130.04-1.35 132.09-1.35L132.09-1.35Q133.19-1.35 134.41-1.68 135.64-2 136.69-2.6 137.74-3.2 138.56-4.08 139.39-4.95 139.69-6.05L139.69-6.05 140.14-6.05 140.14-2.3Q139.84-2.3 139.46-2.1 139.09-1.9 138.59-1.6L138.59-1.6Q137.59-1 135.89-0.33 134.19 0.35 131.39 0.35L131.39 0.35Q129.14 0.35 127.11-0.3 125.09-0.95 123.54-2.3 121.99-3.65 121.06-5.75 120.14-7.85 120.14-10.75L120.14-10.75Q120.14-12.6 120.76-14.5 121.39-16.4 122.66-17.93 123.94-19.45 125.94-20.4 127.94-21.35 130.74-21.35L130.74-21.35Q133.24-21.35 135.11-20.5 136.99-19.65 138.21-18.15 139.44-16.65 140.04-14.6 140.64-12.55 140.64-10.1L140.64-10.1ZM130.54-19.7L130.54-19.7Q128.79-19.7 127.51-19 126.24-18.3 125.34-17.2 124.44-16.1 123.94-14.7 123.44-13.3 123.29-11.9L123.29-11.9 137.54-11.9Q137.49-13.35 137.01-14.75 136.54-16.15 135.69-17.25 134.84-18.35 133.54-19.03 132.24-19.7 130.54-19.7ZM145.14-19.95L150.09-21.55 150.09-1.05Q150.09 0.5 149.71 1.8 149.34 3.1 148.74 4.2 148.14 5.3 147.39 6.18 146.64 7.05 145.84 7.75L145.84 7.75Q143.94 9.4 141.59 10.4L141.59 10.4 141.39 9.95Q142.89 9 144.09 7.5L144.09 7.5Q145.09 6.25 145.96 4.33 146.84 2.4 146.84-0.3L146.84-0.3 146.84-17.05Q146.84-17.9 146.59-18.68 146.34-19.45 145.14-19.5L145.14-19.5 145.14-19.95ZM145.69-26.4L145.69-26.4Q145.69-27.4 146.39-28.1 147.09-28.8 148.09-28.8L148.09-28.8Q149.09-28.8 149.76-28.1 150.44-27.4 150.44-26.4L150.44-26.4Q150.44-25.4 149.76-24.75 149.09-24.1 148.09-24.1L148.09-24.1Q147.09-24.1 146.39-24.75 145.69-25.4 145.69-26.4ZM165.73 0.35L165.73 0.35Q163.23 0.35 161.23-0.48 159.23-1.3 157.81-2.73 156.38-4.15 155.61-6.1 154.83-8.05 154.83-10.35L154.83-10.35Q154.83-12.8 155.68-14.83 156.53-16.85 158.03-18.3 159.53-19.75 161.58-20.55 163.63-21.35 166.03-21.35L166.03-21.35Q168.43-21.35 170.43-20.58 172.43-19.8 173.88-18.4 175.33-17 176.13-15.08 176.93-13.15 176.93-10.85L176.93-10.85Q176.93-8.7 176.21-6.68 175.48-4.65 174.06-3.1 172.63-1.55 170.56-0.6 168.48 0.35 165.73 0.35ZM165.43-19.7L165.43-19.7Q163.63-19.6 162.26-18.82 160.88-18.05 159.96-16.82 159.03-15.6 158.56-14.05 158.08-12.5 158.08-10.9L158.08-10.9Q158.08-9.05 158.66-7.33 159.23-5.6 160.31-4.25 161.38-2.9 162.88-2.1 164.38-1.3 166.23-1.3L166.23-1.3Q168.08-1.3 169.51-2.1 170.93-2.9 171.88-4.17 172.83-5.45 173.31-7.05 173.78-8.65 173.78-10.25L173.78-10.25Q173.78-11.9 173.28-13.58 172.78-15.25 171.73-16.63 170.68-18 169.11-18.85 167.53-19.7 165.43-19.7ZM195.08-20.4L193.58-17.35Q192.98-18.35 192.33-18.6 191.68-18.85 190.83-18.85L190.83-18.85Q190.28-18.85 189.66-18.6 189.03-18.35 188.43-17.95 187.83-17.55 187.26-17.07 186.68-16.6 186.28-16.2L186.28-16.2 186.28-3.2Q186.28-2.8 186.38-2.35 186.48-1.9 186.71-1.48 186.93-1.05 187.21-0.78 187.48-0.5 187.88-0.5L187.88-0.5 187.88 0 181.38 0 181.38-0.5Q181.73-0.5 182.03-0.78 182.33-1.05 182.56-1.48 182.78-1.9 182.88-2.35 182.98-2.8 182.98-3.2L182.98-3.2 182.98-17.15Q182.98-17.85 182.53-18.55 182.08-19.25 181.23-19.45L181.23-19.45 181.23-19.85 186.28-21.35 186.28-18.35Q186.73-18.9 187.23-19.43 187.73-19.95 188.36-20.38 188.98-20.8 189.73-21.08 190.48-21.35 191.48-21.35L191.48-21.35Q192.18-21.35 193.28-21.05 194.38-20.75 195.08-20.4L195.08-20.4ZM218.33-10.1L200.98-10.1Q201.18-8.35 201.83-6.78 202.48-5.2 203.55-4 204.63-2.8 206.18-2.08 207.73-1.35 209.78-1.35L209.78-1.35Q210.88-1.35 212.1-1.68 213.33-2 214.38-2.6 215.43-3.2 216.25-4.08 217.08-4.95 217.38-6.05L217.38-6.05 217.83-6.05 217.83-2.3Q217.53-2.3 217.15-2.1 216.78-1.9 216.28-1.6L216.28-1.6Q215.28-1 213.58-0.33 211.88 0.35 209.08 0.35L209.08 0.35Q206.83 0.35 204.8-0.3 202.78-0.95 201.23-2.3 199.68-3.65 198.75-5.75 197.83-7.85 197.83-10.75L197.83-10.75Q197.83-12.6 198.45-14.5 199.08-16.4 200.35-17.93 201.63-19.45 203.63-20.4 205.63-21.35 208.43-21.35L208.43-21.35Q210.93-21.35 212.8-20.5 214.68-19.65 215.9-18.15 217.13-16.65 217.73-14.6 218.33-12.55 218.33-10.1L218.33-10.1ZM208.23-19.7L208.23-19.7Q206.48-19.7 205.2-19 203.93-18.3 203.03-17.2 202.13-16.1 201.63-14.7 201.13-13.3 200.98-11.9L200.98-11.9 215.23-11.9Q215.18-13.35 214.7-14.75 214.23-16.15 213.38-17.25 212.53-18.35 211.23-19.03 209.93-19.7 208.23-19.7ZM237.28-5.7L237.28-5.7Q237.28-4.4 236.63-3.3 235.98-2.2 234.85-1.38 233.73-0.55 232.23-0.08 230.73 0.4 228.98 0.4L228.98 0.4Q226.83 0.4 225.48-0.18 224.13-0.75 223.18-1.35L223.18-1.35Q222.53-1.75 221.98-2.02 221.43-2.3 220.78-2.3L220.78-2.3 220.78-6.1 221.28-6.1Q221.43-5.4 222.15-4.58 222.88-3.75 223.9-3.05 224.93-2.35 226.15-1.88 227.38-1.4 228.63-1.4L228.63-1.4Q229.53-1.4 230.48-1.6 231.43-1.8 232.2-2.25 232.98-2.7 233.5-3.38 234.03-4.05 234.03-5L234.03-5Q234.03-5.95 233.48-6.65 232.93-7.35 232.08-7.88 231.23-8.4 230.13-8.8 229.03-9.2 227.93-9.55L227.93-9.55Q226.63-9.95 225.3-10.45 223.98-10.95 222.93-11.63 221.88-12.3 221.23-13.28 220.58-14.25 220.58-15.6L220.58-15.6Q220.58-16.75 221-17.8 221.43-18.85 222.4-19.63 223.38-20.4 224.93-20.88 226.48-21.35 228.68-21.35L228.68-21.35Q230.63-21.35 231.7-21.03 232.78-20.7 233.48-20.35L233.48-20.35Q233.93-20.1 234.38-19.98 234.83-19.85 235.38-19.85L235.38-19.85 235.38-16.35 234.98-16.35Q234.08-18 232.23-18.85 230.38-19.7 228.43-19.7L228.43-19.7Q227.18-19.7 226.28-19.38 225.38-19.05 224.8-18.57 224.23-18.1 223.95-17.5 223.68-16.9 223.68-16.3L223.68-16.3Q223.68-15.45 224.15-14.85 224.63-14.25 225.45-13.8 226.28-13.35 227.3-12.95 228.33-12.55 229.48-12.2L229.48-12.2Q230.88-11.75 232.28-11.23 233.68-10.7 234.78-9.95 235.88-9.2 236.58-8.18 237.28-7.15 237.28-5.7ZM264.87-19.3L259.22-19.3 259.22-3.25Q259.22-2.85 259.32-2.38 259.42-1.9 259.65-1.5 259.87-1.1 260.15-0.8 260.42-0.5 260.82-0.5L260.82-0.5 260.82 0 254.32 0 254.32-0.5Q254.67-0.5 254.97-0.8 255.27-1.1 255.5-1.5 255.72-1.9 255.82-2.38 255.92-2.85 255.92-3.25L255.92-3.25 255.92-19.3 253.42-19.3 253.42-21 255.92-21 255.92-25.05Q255.92-26.6 256.02-28.05 256.12-29.5 256.62-30.65 257.12-31.8 258.15-32.5 259.17-33.2 260.97-33.2L260.97-33.2Q261.97-33.2 262.7-32.98 263.42-32.75 263.95-32.48 264.47-32.2 264.82-31.98 265.17-31.75 265.42-31.75L265.42-31.75 265.42-28.1 264.97-28.1Q264.72-29.55 263.67-30.53 262.62-31.5 261.57-31.5L261.57-31.5Q260.12-31.5 259.67-29.98 259.22-28.45 259.22-25.75L259.22-25.75 259.22-21 264.87-21 264.87-19.3ZM275.32 0L268.77 0 268.77-0.5Q269.17-0.5 269.47-0.8 269.77-1.1 269.99-1.5 270.22-1.9 270.32-2.38 270.42-2.85 270.42-3.25L270.42-3.25 270.42-28.85Q270.42-29.7 270.17-30.45 269.92-31.2 268.67-31.25L268.67-31.25 268.67-31.75 273.72-33.3 273.72-3.25Q273.72-2.85 273.82-2.38 273.92-1.9 274.14-1.5 274.37-1.1 274.64-0.8 274.92-0.5 275.32-0.5L275.32-0.5 275.32 0ZM290.62 0.35L290.62 0.35Q288.12 0.35 286.12-0.48 284.12-1.3 282.69-2.73 281.27-4.15 280.49-6.1 279.72-8.05 279.72-10.35L279.72-10.35Q279.72-12.8 280.57-14.83 281.42-16.85 282.92-18.3 284.42-19.75 286.47-20.55 288.52-21.35 290.92-21.35L290.92-21.35Q293.32-21.35 295.32-20.58 297.32-19.8 298.77-18.4 300.22-17 301.02-15.08 301.82-13.15 301.82-10.85L301.82-10.85Q301.82-8.7 301.09-6.68 300.37-4.65 298.94-3.1 297.52-1.55 295.44-0.6 293.37 0.35 290.62 0.35ZM290.32-19.7L290.32-19.7Q288.52-19.6 287.14-18.82 285.77-18.05 284.84-16.82 283.92-15.6 283.44-14.05 282.97-12.5 282.97-10.9L282.97-10.9Q282.97-9.05 283.54-7.33 284.12-5.6 285.19-4.25 286.27-2.9 287.77-2.1 289.27-1.3 291.12-1.3L291.12-1.3Q292.97-1.3 294.39-2.1 295.82-2.9 296.77-4.17 297.72-5.45 298.19-7.05 298.67-8.65 298.67-10.25L298.67-10.25Q298.67-11.9 298.17-13.58 297.67-15.25 296.62-16.63 295.57-18 293.99-18.85 292.42-19.7 290.32-19.7ZM319.96-20.4L318.46-17.35Q317.86-18.35 317.21-18.6 316.56-18.85 315.71-18.85L315.71-18.85Q315.16-18.85 314.54-18.6 313.91-18.35 313.31-17.95 312.71-17.55 312.14-17.07 311.56-16.6 311.16-16.2L311.16-16.2 311.16-3.2Q311.16-2.8 311.26-2.35 311.36-1.9 311.59-1.48 311.81-1.05 312.09-0.78 312.36-0.5 312.76-0.5L312.76-0.5 312.76 0 306.26 0 306.26-0.5Q306.61-0.5 306.91-0.78 307.21-1.05 307.44-1.48 307.66-1.9 307.76-2.35 307.86-2.8 307.86-3.2L307.86-3.2 307.86-17.15Q307.86-17.85 307.41-18.55 306.96-19.25 306.11-19.45L306.11-19.45 306.11-19.85 311.16-21.35 311.16-18.35Q311.61-18.9 312.11-19.43 312.61-19.95 313.24-20.38 313.86-20.8 314.61-21.08 315.36-21.35 316.36-21.35L316.36-21.35Q317.06-21.35 318.16-21.05 319.26-20.75 319.96-20.4L319.96-20.4ZM343.21-10.1L325.86-10.1Q326.06-8.35 326.71-6.78 327.36-5.2 328.44-4 329.51-2.8 331.06-2.08 332.61-1.35 334.66-1.35L334.66-1.35Q335.76-1.35 336.99-1.68 338.21-2 339.26-2.6 340.31-3.2 341.14-4.08 341.96-4.95 342.26-6.05L342.26-6.05 342.71-6.05 342.71-2.3Q342.41-2.3 342.04-2.1 341.66-1.9 341.16-1.6L341.16-1.6Q340.16-1 338.46-0.33 336.76 0.35 333.96 0.35L333.96 0.35Q331.71 0.35 329.69-0.3 327.66-0.95 326.11-2.3 324.56-3.65 323.64-5.75 322.71-7.85 322.71-10.75L322.71-10.75Q322.71-12.6 323.34-14.5 323.96-16.4 325.24-17.93 326.51-19.45 328.51-20.4 330.51-21.35 333.31-21.35L333.31-21.35Q335.81-21.35 337.69-20.5 339.56-19.65 340.79-18.15 342.01-16.65 342.61-14.6 343.21-12.55 343.21-10.1L343.21-10.1ZM333.11-19.7L333.11-19.7Q331.36-19.7 330.09-19 328.81-18.3 327.91-17.2 327.01-16.1 326.51-14.7 326.01-13.3 325.86-11.9L325.86-11.9 340.11-11.9Q340.06-13.35 339.59-14.75 339.11-16.15 338.26-17.25 337.41-18.35 336.11-19.03 334.81-19.7 333.11-19.7ZM362.16-5.7L362.16-5.7Q362.16-4.4 361.51-3.3 360.86-2.2 359.73-1.38 358.61-0.55 357.11-0.08 355.61 0.4 353.86 0.4L353.86 0.4Q351.71 0.4 350.36-0.18 349.01-0.75 348.06-1.35L348.06-1.35Q347.41-1.75 346.86-2.02 346.31-2.3 345.66-2.3L345.66-2.3 345.66-6.1 346.16-6.1Q346.31-5.4 347.03-4.58 347.76-3.75 348.78-3.05 349.81-2.35 351.03-1.88 352.26-1.4 353.51-1.4L353.51-1.4Q354.41-1.4 355.36-1.6 356.31-1.8 357.08-2.25 357.86-2.7 358.38-3.38 358.91-4.05 358.91-5L358.91-5Q358.91-5.95 358.36-6.65 357.81-7.35 356.96-7.88 356.11-8.4 355.01-8.8 353.91-9.2 352.81-9.55L352.81-9.55Q351.51-9.95 350.18-10.45 348.86-10.95 347.81-11.63 346.76-12.3 346.11-13.28 345.46-14.25 345.46-15.6L345.46-15.6Q345.46-16.75 345.88-17.8 346.31-18.85 347.28-19.63 348.26-20.4 349.81-20.88 351.36-21.35 353.56-21.35L353.56-21.35Q355.51-21.35 356.58-21.03 357.66-20.7 358.36-20.35L358.36-20.35Q358.81-20.1 359.26-19.98 359.71-19.85 360.26-19.85L360.26-19.85 360.26-16.35 359.86-16.35Q358.96-18 357.11-18.85 355.26-19.7 353.31-19.7L353.31-19.7Q352.06-19.7 351.16-19.38 350.26-19.05 349.68-18.57 349.11-18.1 348.83-17.5 348.56-16.9 348.56-16.3L348.56-16.3Q348.56-15.45 349.03-14.85 349.51-14.25 350.33-13.8 351.16-13.35 352.18-12.95 353.21-12.55 354.36-12.2L354.36-12.2Q355.76-11.75 357.16-11.23 358.56-10.7 359.66-9.95 360.76-9.2 361.46-8.18 362.16-7.15 362.16-5.7ZM390.1-21.35L390.1-21.35Q392.8-21.35 394.78-20.43 396.75-19.5 398.08-18 399.4-16.5 400.05-14.55 400.7-12.6 400.7-10.55L400.7-10.55Q400.7-8.55 400.08-6.6 399.45-4.65 398.18-3.1 396.9-1.55 395-0.6 393.1 0.35 390.5 0.35L390.5 0.35Q388.95 0.35 387.33-0.48 385.7-1.3 384.4-2.55L384.4-2.55 384.4 7.25Q384.4 7.65 384.5 8.13 384.6 8.6 384.83 9 385.05 9.4 385.33 9.7 385.6 10 386 10L386 10 386 10.5 379.5 10.5 379.5 10Q379.85 10 380.15 9.7 380.45 9.4 380.68 9 380.9 8.6 381 8.13 381.1 7.65 381.1 7.25L381.1 7.25 381.1-18.05Q381.1-18.5 381.08-18.93 381.05-19.35 380.9-19.68 380.75-20 380.43-20.23 380.1-20.45 379.5-20.5L379.5-20.5 379.5-21 384.4-21 384.4-18.8Q385.4-20 386.83-20.68 388.25-21.35 390.1-21.35ZM390.55-1.35L390.55-1.35Q392.3-1.4 393.6-2.15 394.9-2.9 395.75-4.1 396.6-5.3 397-6.78 397.4-8.25 397.4-9.85L397.4-9.85Q397.4-11.65 396.9-13.4 396.4-15.15 395.45-16.53 394.5-17.9 393.13-18.78 391.75-19.65 390-19.65L390-19.65Q388.95-19.65 387.93-19.25 386.9-18.85 386.13-18.1 385.35-17.35 384.88-16.32 384.4-15.3 384.4-14.05L384.4-14.05 384.4-7.5Q384.4-6.15 384.95-5.03 385.5-3.9 386.38-3.08 387.25-2.25 388.35-1.8 389.45-1.35 390.55-1.35ZM423.25 0L418.4 0 418.4-2.55 418.15-2.3Q416.9-1.05 415.28-0.35 413.65 0.35 411.35 0.35L411.35 0.35Q409.6 0.35 408.35-0.05 407.1-0.45 406.3-1.18 405.5-1.9 405.13-2.85 404.75-3.8 404.75-4.85L404.75-4.85Q404.75-6.55 405.68-7.85 406.6-9.15 408.35-10.15 410.1-11.15 412.63-11.98 415.15-12.8 418.4-13.6L418.4-13.6Q418.3-15.55 417.6-16.75 416.9-17.95 415.95-18.63 415-19.3 413.95-19.53 412.9-19.75 412.15-19.75L412.15-19.75Q410.85-19.75 409.88-19.35 408.9-18.95 408.18-18.32 407.45-17.7 406.95-16.98 406.45-16.25 406.15-15.6L406.15-15.6 405.7-15.6 405.7-19.25Q406.1-19.3 406.45-19.5 406.8-19.7 407.3-19.9L407.3-19.9Q408.05-20.2 409.35-20.78 410.65-21.35 413-21.35L413-21.35Q415.75-21.35 417.45-20.65 419.15-19.95 420.08-18.8 421-17.65 421.3-16.18 421.6-14.7 421.6-13.15L421.6-13.15 421.6-3.25Q421.6-2.25 422.05-1.38 422.5-0.5 423.25-0.5L423.25-0.5 423.25 0ZM417.85-4.15L418.4-4.75 418.4-11.9 417.9-11.8Q416.7-11.5 414.98-11 413.25-10.5 411.7-9.7 410.15-8.9 409.05-7.8 407.95-6.7 407.95-5.25L407.95-5.25Q407.95-3.65 409.25-2.6 410.55-1.55 412.65-1.55L412.65-1.55Q414.3-1.55 415.55-2.27 416.8-3 417.85-4.15L417.85-4.15ZM441.75-20.4L440.25-17.35Q439.65-18.35 439-18.6 438.35-18.85 437.5-18.85L437.5-18.85Q436.95-18.85 436.32-18.6 435.7-18.35 435.1-17.95 434.5-17.55 433.92-17.07 433.35-16.6 432.95-16.2L432.95-16.2 432.95-3.2Q432.95-2.8 433.05-2.35 433.15-1.9 433.37-1.48 433.6-1.05 433.87-0.78 434.15-0.5 434.55-0.5L434.55-0.5 434.55 0 428.05 0 428.05-0.5Q428.4-0.5 428.7-0.78 429-1.05 429.22-1.48 429.45-1.9 429.55-2.35 429.65-2.8 429.65-3.2L429.65-3.2 429.65-17.15Q429.65-17.85 429.2-18.55 428.75-19.25 427.9-19.45L427.9-19.45 427.9-19.85 432.95-21.35 432.95-18.35Q433.4-18.9 433.9-19.43 434.4-19.95 435.02-20.38 435.65-20.8 436.4-21.08 437.15-21.35 438.15-21.35L438.15-21.35Q438.85-21.35 439.95-21.05 441.05-20.75 441.75-20.4L441.75-20.4ZM462.95 0L458.1 0 458.1-2.55 457.85-2.3Q456.6-1.05 454.97-0.35 453.35 0.35 451.05 0.35L451.05 0.35Q449.3 0.35 448.05-0.05 446.8-0.45 446-1.18 445.2-1.9 444.82-2.85 444.45-3.8 444.45-4.85L444.45-4.85Q444.45-6.55 445.37-7.85 446.3-9.15 448.05-10.15 449.8-11.15 452.32-11.98 454.85-12.8 458.1-13.6L458.1-13.6Q458-15.55 457.3-16.75 456.6-17.95 455.65-18.63 454.7-19.3 453.65-19.53 452.6-19.75 451.85-19.75L451.85-19.75Q450.55-19.75 449.57-19.35 448.6-18.95 447.87-18.32 447.15-17.7 446.65-16.98 446.15-16.25 445.85-15.6L445.85-15.6 445.4-15.6 445.4-19.25Q445.8-19.3 446.15-19.5 446.5-19.7 447-19.9L447-19.9Q447.75-20.2 449.05-20.78 450.35-21.35 452.7-21.35L452.7-21.35Q455.45-21.35 457.15-20.65 458.85-19.95 459.77-18.8 460.7-17.65 461-16.18 461.3-14.7 461.3-13.15L461.3-13.15 461.3-3.25Q461.3-2.25 461.75-1.38 462.2-0.5 462.95-0.5L462.95-0.5 462.95 0ZM457.55-4.15L458.1-4.75 458.1-11.9 457.6-11.8Q456.4-11.5 454.67-11 452.95-10.5 451.4-9.7 449.85-8.9 448.75-7.8 447.65-6.7 447.65-5.25L447.65-5.25Q447.65-3.65 448.95-2.6 450.25-1.55 452.35-1.55L452.35-1.55Q454-1.55 455.25-2.27 456.5-3 457.55-4.15L457.55-4.15ZM507.64 0L507.64-0.5 507.89-0.5Q508.24-0.5 508.54-0.8 508.84-1.1 509.07-1.5 509.29-1.9 509.39-2.38 509.49-2.85 509.49-3.25L509.49-3.25 509.49-29.55 496.59 0.55 484.34-28 484.34-3.25Q484.34-2.85 484.44-2.38 484.54-1.9 484.77-1.5 484.99-1.1 485.29-0.8 485.59-0.5 485.99-0.5L485.99-0.5 486.24-0.5 486.24 0 480.79 0 480.79-0.5 481.04-0.5Q481.39-0.5 481.69-0.8 481.99-1.1 482.19-1.5 482.39-1.9 482.49-2.38 482.59-2.85 482.59-3.25L482.59-3.25 482.59-29.9Q482.59-30.25 482.49-30.7 482.39-31.15 482.19-31.55 481.99-31.95 481.69-32.23 481.39-32.5 481.04-32.5L481.04-32.5 480.79-32.5 480.79-33 485.89-33 497.49-5.65 509.09-33 514.74-33 514.74-32.5 514.49-32.5Q514.09-32.5 513.79-32.23 513.49-31.95 513.27-31.55 513.04-31.15 512.94-30.7 512.84-30.25 512.84-29.9L512.84-29.9 512.84-3.25Q512.84-2.85 512.94-2.38 513.04-1.9 513.27-1.5 513.49-1.1 513.79-0.8 514.09-0.5 514.49-0.5L514.49-0.5 514.74-0.5 514.74 0 507.64 0ZM537.64 0L532.79 0 532.79-2.55 532.54-2.3Q531.29-1.05 529.66-0.35 528.04 0.35 525.74 0.35L525.74 0.35Q523.99 0.35 522.74-0.05 521.49-0.45 520.69-1.18 519.89-1.9 519.51-2.85 519.14-3.8 519.14-4.85L519.14-4.85Q519.14-6.55 520.06-7.85 520.99-9.15 522.74-10.15 524.49-11.15 527.01-11.98 529.54-12.8 532.79-13.6L532.79-13.6Q532.69-15.55 531.99-16.75 531.29-17.95 530.34-18.63 529.39-19.3 528.34-19.53 527.29-19.75 526.54-19.75L526.54-19.75Q525.24-19.75 524.26-19.35 523.29-18.95 522.56-18.32 521.84-17.7 521.34-16.98 520.84-16.25 520.54-15.6L520.54-15.6 520.09-15.6 520.09-19.25Q520.49-19.3 520.84-19.5 521.19-19.7 521.69-19.9L521.69-19.9Q522.44-20.2 523.74-20.78 525.04-21.35 527.39-21.35L527.39-21.35Q530.14-21.35 531.84-20.65 533.54-19.95 534.46-18.8 535.39-17.65 535.69-16.18 535.99-14.7 535.99-13.15L535.99-13.15 535.99-3.25Q535.99-2.25 536.44-1.38 536.89-0.5 537.64-0.5L537.64-0.5 537.64 0ZM532.24-4.15L532.79-4.75 532.79-11.9 532.29-11.8Q531.09-11.5 529.36-11 527.64-10.5 526.09-9.7 524.54-8.9 523.44-7.8 522.34-6.7 522.34-5.25L522.34-5.25Q522.34-3.65 523.64-2.6 524.94-1.55 527.04-1.55L527.04-1.55Q528.69-1.55 529.94-2.27 531.19-3 532.24-4.15L532.24-4.15ZM562.54-12.9L562.54-3.25Q562.54-2.85 562.64-2.38 562.74-1.9 562.96-1.5 563.19-1.1 563.46-0.8 563.74-0.5 564.14-0.5L564.14-0.5 564.14 0 557.69 0 557.69-0.5Q558.04-0.5 558.34-0.8 558.64-1.1 558.86-1.5 559.09-1.9 559.19-2.38 559.29-2.85 559.29-3.25L559.29-3.25 559.29-12.55Q559.29-14.35 558.79-15.7 558.29-17.05 557.44-17.95 556.59-18.85 555.51-19.28 554.44-19.7 553.34-19.7L553.34-19.7Q552.24-19.7 551.16-19.25 550.09-18.8 549.26-18.07 548.44-17.35 547.91-16.38 547.39-15.4 547.39-14.35L547.39-14.35 547.39-3.25Q547.39-2.85 547.49-2.38 547.59-1.9 547.81-1.5 548.04-1.1 548.31-0.8 548.59-0.5 548.99-0.5L548.99-0.5 548.99 0 542.49 0 542.49-0.5Q542.84-0.5 543.14-0.8 543.44-1.1 543.66-1.5 543.89-1.9 543.99-2.38 544.09-2.85 544.09-3.25L544.09-3.25 544.09-17.05Q544.09-17.9 543.84-18.68 543.59-19.45 542.39-19.5L542.39-19.5 542.39-19.95 547.39-21.55 547.39-18.8Q547.74-19.2 548.29-19.68 548.84-20.15 549.61-20.58 550.39-21 551.41-21.28 552.44-21.55 553.84-21.55L553.84-21.55Q556.19-21.55 557.84-20.75 559.49-19.95 560.54-18.68 561.59-17.4 562.06-15.88 562.54-14.35 562.54-12.9L562.54-12.9ZM579.53 0.35L579.53 0.35Q577.03 0.35 575.03-0.48 573.03-1.3 571.61-2.73 570.18-4.15 569.41-6.1 568.63-8.05 568.63-10.35L568.63-10.35Q568.63-12.8 569.48-14.83 570.33-16.85 571.83-18.3 573.33-19.75 575.38-20.55 577.43-21.35 579.83-21.35L579.83-21.35Q582.23-21.35 584.23-20.58 586.23-19.8 587.68-18.4 589.13-17 589.93-15.08 590.73-13.15 590.73-10.85L590.73-10.85Q590.73-8.7 590.01-6.68 589.28-4.65 587.86-3.1 586.43-1.55 584.36-0.6 582.28 0.35 579.53 0.35ZM579.23-19.7L579.23-19.7Q577.43-19.6 576.06-18.82 574.68-18.05 573.76-16.82 572.83-15.6 572.36-14.05 571.88-12.5 571.88-10.9L571.88-10.9Q571.88-9.05 572.46-7.33 573.03-5.6 574.11-4.25 575.18-2.9 576.68-2.1 578.18-1.3 580.03-1.3L580.03-1.3Q581.88-1.3 583.31-2.1 584.73-2.9 585.68-4.17 586.63-5.45 587.11-7.05 587.58-8.65 587.58-10.25L587.58-10.25Q587.58-11.9 587.08-13.58 586.58-15.25 585.53-16.63 584.48-18 582.91-18.85 581.33-19.7 579.23-19.7ZM601.93 0L595.38 0 595.38-0.5Q595.78-0.5 596.08-0.8 596.38-1.1 596.6-1.5 596.83-1.9 596.93-2.38 597.03-2.85 597.03-3.25L597.03-3.25 597.03-28.85Q597.03-29.7 596.78-30.45 596.53-31.2 595.28-31.25L595.28-31.25 595.28-31.75 600.33-33.3 600.33-3.25Q600.33-2.85 600.43-2.38 600.53-1.9 600.75-1.5 600.98-1.1 601.25-0.8 601.53-0.5 601.93-0.5L601.93-0.5 601.93 0ZM617.23 0.35L617.23 0.35Q614.73 0.35 612.73-0.48 610.73-1.3 609.3-2.73 607.88-4.15 607.1-6.1 606.33-8.05 606.33-10.35L606.33-10.35Q606.33-12.8 607.18-14.83 608.03-16.85 609.53-18.3 611.03-19.75 613.08-20.55 615.13-21.35 617.53-21.35L617.53-21.35Q619.93-21.35 621.93-20.58 623.93-19.8 625.38-18.4 626.83-17 627.63-15.08 628.43-13.15 628.43-10.85L628.43-10.85Q628.43-8.7 627.7-6.68 626.98-4.65 625.55-3.1 624.13-1.55 622.05-0.6 619.98 0.35 617.23 0.35ZM616.93-19.7L616.93-19.7Q615.13-19.6 613.75-18.82 612.38-18.05 611.45-16.82 610.53-15.6 610.05-14.05 609.58-12.5 609.58-10.9L609.58-10.9Q609.58-9.05 610.15-7.33 610.73-5.6 611.8-4.25 612.88-2.9 614.38-2.1 615.88-1.3 617.73-1.3L617.73-1.3Q619.58-1.3 621-2.1 622.43-2.9 623.38-4.17 624.33-5.45 624.8-7.05 625.28-8.65 625.28-10.25L625.28-10.25Q625.28-11.9 624.78-13.58 624.28-15.25 623.23-16.63 622.18-18 620.6-18.85 619.03-19.7 616.93-19.7Z" opacity="1" transform="matrix(1,0,0,1,0,0)" fill="#ffffff" class="undefined-text-1" data-fill-palette-color="quaternary" id="text-1"></path></svg></g></svg></g></svg></g></svg></g></svg></g></svg></g></svg></g></svg><rect width="333.90454557049503" height="333.90454557049503" fill="none" stroke="none" visibility="hidden"></rect></g></svg></g></svg>